<svg width="1454" height="2418" viewBox="0 0 1454 2418" fill="none" xmlns="http://www.w3.org/2000/svg">
<path d="M1311.82 767.794C1311.55 767.192 1311.23 766.594 1310.96 765.991V2099.11C1310.96 2213.62 1217.58 2306.79 1102.83 2306.79H347.456C232.703 2306.79 139.338 2213.62 139.338 2099.11V765.393C138.951 766.189 138.541 766.989 138.182 767.799C138.182 767.799 64.583 576.341 163.264 412.21C163.264 412.21 189.238 451.946 213.48 469.222C213.48 469.222 216.943 283.503 383.133 174.657C512.109 90.2094 705.146 102.1 798.625 140.98C798.625 140.98 624.631 192.799 572.703 299.047C572.703 299.047 844.425 118.515 1156.99 282.646C1156.99 282.646 1036.71 322.382 959.211 374.202C959.211 374.202 1122.13 323.022 1252.21 424.299C1409.75 546.962 1311.82 767.794 1311.82 767.794ZM1320.76 336.618C1303.73 323.371 1285.73 311.583 1266.85 301.302C1267.37 298.157 1267.78 295.003 1268.04 291.784C1271.73 247.345 1248.44 204.992 1208.87 184.227C1111.82 133.264 1009.12 105.914 903.297 102.816C892.829 74.251 870.818 50.5253 841.486 38.3189C782.911 13.9624 703.906 0 624.74 0C543.536 0 425.103 14.1742 321.997 81.6983C224.283 145.682 169.987 230.007 139.791 303.496C109.978 309.912 83.7306 328.361 67.7153 354.986C-38.9478 532.392 9.02256 728.948 27.8965 789.307V2099.11C27.8965 2274.94 171.246 2418 347.456 2418H1102.83C1279.04 2418 1422.39 2274.95 1422.39 2099.11V790.8C1432.51 762.668 1448.12 710.876 1452.28 649.566C1461.03 520.6 1414.33 409.47 1320.76 336.618ZM725.134 2016.66C683.805 2016.66 650.317 2050.09 650.317 2091.33C650.317 2132.58 683.805 2166.01 725.134 2166.01C766.471 2166.01 799.978 2132.58 799.978 2091.33C799.978 2050.09 766.471 2016.66 725.134 2016.66ZM1048.27 1269.89C1048.27 1239.94 1023.86 1215.58 993.841 1215.58C963.829 1215.58 939.408 1239.94 939.408 1269.89H860.195C860.195 1196.34 920.157 1136.51 993.841 1136.51C1067.54 1136.51 1127.51 1196.34 1127.51 1269.89H1048.27ZM725.134 1590.97C651.449 1590.97 591.488 1531.13 591.488 1457.58H670.719C670.719 1487.54 695.136 1511.9 725.134 1511.9C755.145 1511.9 779.567 1487.54 779.567 1457.58H858.794C858.794 1531.13 798.837 1590.97 725.134 1590.97ZM510.869 1269.89C510.869 1239.94 486.447 1215.58 456.436 1215.58C426.424 1215.58 402.003 1239.94 402.003 1269.89H322.775C322.775 1196.34 382.732 1136.51 456.436 1136.51C530.12 1136.51 590.082 1196.34 590.082 1269.89H510.869ZM1069.17 681.534C926.119 739.041 891.725 854.068 724.992 854.068C558.259 854.068 523.851 739.041 380.808 681.534C323.752 658.604 272.456 661.358 231.052 678.54V2039.17C272.017 2053.46 322.096 2055.1 377.595 2034.78C522.044 1981.86 556.787 1876.03 725.129 1876.03C893.49 1876.03 928.228 1981.86 1072.68 2034.78C1128.18 2055.1 1178.26 2053.47 1219.22 2039.17V678.658C1177.75 661.353 1126.35 658.548 1069.17 681.534Z" fill="#FEFEFE"/>
</svg>
